<svg xmlns="http://www.w3.org/2000/svg" xmlns:xlink="http://www.w3.org/1999/xlink" xmlns:lucid="lucid" width="980" height="1053"><g transform="translate(-560 -80)" lucid:page-tab-id="0_0"><path d="M0 0h1870.87v1322.83H0z" fill="#fff"/><path d="M1000 500h40v40h-40z" fill="none"/><use xlink:href="#a" transform="matrix(1,0,0,1,1000,500) translate(3.3518518518518583 22.666666666666664)"/><path d="M900 106a6 6 0 0 1 6-6h288a6 6 0 0 1 6 6v284a6 6 0 0 1-6 6H906a6 6 0 0 1-6-6z" stroke="#3a414a" fill="#fff"/><path d="M900 140h300m-300 62h300" stroke="#3a414a" fill="none"/><use xlink:href="#b" transform="matrix(1,0,0,1,908,108) translate(86.77777777777777 16)"/><use xlink:href="#c" transform="matrix(1,0,0,1,912,148) translate(117.5 16)"/><use xlink:href="#d" transform="matrix(1,0,0,1,912,210) translate(117.5 16)"/><use xlink:href="#e" transform="matrix(1,0,0,1,912,210) translate(113.08333333333333 42.400000000000006)"/><use xlink:href="#f" transform="matrix(1,0,0,1,912,210) translate(91.41666666666666 68.80000000000001)"/><use xlink:href="#g" transform="matrix(1,0,0,1,912,210) translate(93.63888888888889 95.2)"/><use xlink:href="#h" transform="matrix(1,0,0,1,912,210) translate(88.11111111111111 121.60000000000001)"/><use xlink:href="#i" transform="matrix(1,0,0,1,912,210) translate(39.249999999999986 148)"/><path d="M580 906a6 6 0 0 1 6-6h288a6 6 0 0 1 6 6v201a6 6 0 0 1-6 6H586a6 6 0 0 1-6-6z" stroke="#3a414a" fill="#fff"/><path d="M580 940h300m-300 86.4h300" stroke="#3a414a" fill="none"/><use xlink:href="#j" transform="matrix(1,0,0,1,588,908) translate(111.52777777777777 16)"/><use xlink:href="#k" transform="matrix(1,0,0,1,592,948) translate(93.05555555555554 16)"/><use xlink:href="#l" transform="matrix(1,0,0,1,592,948) translate(88.63888888888889 42.400000000000006)"/><use xlink:href="#m" transform="matrix(1,0,0,1,592,1034.4) translate(51.47222222222223 16)"/><use xlink:href="#n" transform="matrix(1,0,0,1,592,1034.4) translate(47.05555555555556 42.400000000000006)"/><path d="M900 606a6 6 0 0 1 6-6h288a6 6 0 0 1 6 6v134a6 6 0 0 1-6 6H906a6 6 0 0 1-6-6z" stroke="#3a414a" fill="#fff"/><path d="M900 666.4h300" stroke="#3a414a" fill="none"/><use xlink:href="#o" transform="matrix(1,0,0,1,908,608) translate(77.08333333333333 16)"/><use xlink:href="#p" transform="matrix(1,0,0,1,908,608) translate(115.44444444444444 42.400000000000006)"/><use xlink:href="#m" transform="matrix(1,0,0,1,912,674.4) translate(51.47222222222223 16)"/><use xlink:href="#n" transform="matrix(1,0,0,1,912,674.4) translate(47.05555555555556 42.400000000000006)"/><path d="M1050 396.96v186.2" stroke="#3a414a" fill="none"/><path d="M1050.5 396.98h-1v-.52h1z" stroke="#3a414a" stroke-width=".05" fill="#3a414a"/><path d="M1050 597.92l-4.64-14.27h9.28z" stroke="#3a414a" fill="#3a414a"/><use xlink:href="#q" transform="matrix(1,0,0,1,1062.6352549156243,585.736857364139) translate(0 9.066666666666668)"/><path d="M900 906a6 6 0 0 1 6-6h288a6 6 0 0 1 6 6v107a6 6 0 0 1-6 6H906a6 6 0 0 1-6-6z" stroke="#3a414a" fill="#fff"/><path d="M900 940h300" stroke="#3a414a" fill="none"/><use xlink:href="#r" transform="matrix(1,0,0,1,908,908) translate(113.19444444444444 16)"/><use xlink:href="#m" transform="matrix(1,0,0,1,912,948) translate(51.47222222222223 16)"/><use xlink:href="#n" transform="matrix(1,0,0,1,912,948) translate(47.05555555555556 42.400000000000006)"/><path d="M1220 906a6 6 0 0 1 6-6h288a6 6 0 0 1 6 6v107a6 6 0 0 1-6 6h-288a6 6 0 0 1-6-6z" stroke="#3a414a" fill="#fff"/><path d="M1220 940h300" stroke="#3a414a" fill="none"/><use xlink:href="#s" transform="matrix(1,0,0,1,1228,908) translate(107.11111111111111 16)"/><use xlink:href="#m" transform="matrix(1,0,0,1,1232,948) translate(51.47222222222223 16)"/><use xlink:href="#n" transform="matrix(1,0,0,1,1232,948) translate(47.05555555555556 42.400000000000006)"/><path d="M1050 899.04V894m0-5.05v-10.1m0-5.03v-10.1m0-5.04V848.6m0-5.05v-10.1m0-5.03v-10.1m0-5.03v-10.1m0-5.04v-10.1m0-5.04v-10.08m0-5.05v-5.05" stroke="#3a414a" fill="none"/><path d="M1050.5 899.54h-1v-.52h1z" stroke="#3a414a" stroke-width=".05" fill="#3a414a"/><path d="M1050 748.08l4.64 14.27h-9.28z" stroke="#3a414a" fill="#fff"/><path d="M799.78 899.17l3.62-3.62m3.62-3.62l7.23-7.24m3.62-3.62l7.23-7.24m3.62-3.62l7.23-7.23m3.62-3.63l7.23-7.23m3.62-3.62l7.23-7.24m3.62-3.62l7.23-7.23m3.62-3.62l7.23-7.22m3.62-3.62l7.24-7.24m3.62-3.62l7.24-7.23m3.6-3.62l7.25-7.23m3.62-3.62l7.24-7.24m3.6-3.6l7.25-7.25m3.63-3.6l3.6-3.63" stroke="#3a414a" fill="none"/><path d="M800.15 899.5v.02h-1.43l.72-.72z" stroke="#3a414a" stroke-width=".05" fill="#3a414a"/><path d="M951.28 747.63l-6.8 13.37-6.56-6.56z" stroke="#3a414a" fill="#fff"/><path d="M1298.66 899.2l-3.62-3.62m-3.62-3.62l-7.23-7.24m-3.63-3.62l-7.24-7.24m-3.6-3.62l-7.25-7.24m-3.62-3.62l-7.23-7.24m-3.62-3.62l-7.22-7.24m-3.62-3.62l-7.24-7.24m-3.6-3.62l-7.25-7.24m-3.62-3.62l-7.23-7.23m-3.62-3.6l-7.24-7.25m-3.6-3.62l-7.25-7.24m-3.6-3.63l-7.24-7.24m-3.62-3.62l-7.23-7.23m-3.6-3.62l-3.63-3.62" stroke="#3a414a" fill="none"/><path d="M1299.72 899.55h-1.42l.7-.7z" stroke="#3a414a" stroke-width=".05" fill="#3a414a"/><path d="M1147.13 747.58l13.37 6.82-6.56 6.55z" stroke="#3a414a" fill="#fff"/><defs><path fill="#3a414a" d="M222 0l43-216c-8 16-17 34-26 49L143 0h-22L81-216 41 0H11l48-248h42l38 208 116-208h45L252 0h-30" id="t"/><path fill="#3a414a" d="M30-147c31-64 166-65 159 27C183-49 158 1 86 4 9 8 1-88 30-147zM88-20c53 0 68-48 68-100 0-31-11-51-44-50-52 1-68 46-68 97 0 32 13 53 44 53" id="u"/><path fill="#3a414a" d="M133-28C103 26-5 8 13-77c13-62 24-115 90-117 29-1 46 15 56 35l19-102h32L160 0h-30zM45-64c-2 27 10 43 35 43 54-1 69-50 69-103 0-29-15-46-42-46-53-1-58 58-62 106" id="v"/><g id="a"><use transform="matrix(0.03703703703703702,0,0,0.03703703703703702,0,0)" xlink:href="#t"/><use transform="matrix(0.03703703703703702,0,0,0.03703703703703702,11.074074074074069,0)" xlink:href="#u"/><use transform="matrix(0.03703703703703702,0,0,0.03703703703703702,18.481481481481474,0)" xlink:href="#u"/><use transform="matrix(0.03703703703703702,0,0,0.03703703703703702,25.88888888888888,0)" xlink:href="#v"/></g><path d="M136-208V0H84v-208H4v-40h212v40h-80" id="w"/><path d="M133-34C117-15 103 5 69 4 32 3 11-16 11-54c-1-60 55-63 116-61 1-26-3-47-28-47-18 1-26 9-28 27l-52-2c7-38 36-58 82-57s74 22 75 68l1 82c-1 14 12 18 25 15v27c-30 8-71 5-69-32zm-48 3c29 0 43-24 42-57-32 0-66-3-65 30 0 17 8 27 23 27" id="x"/><path d="M220-157c-53 9-28 100-34 157h-49v-107c1-27-5-49-29-50C55-147 81-57 75 0H25l-1-190h47c2 12-1 28 3 38 10-53 101-56 108 0 13-22 24-43 59-42 82 1 51 116 57 194h-49v-107c-1-25-5-48-29-50" id="y"/><path d="M195-6C206 82 75 100 31 46c-4-6-6-13-8-21l49-6c3 16 16 24 34 25 40 0 42-37 40-79-11 22-30 35-61 35-53 0-70-43-70-97 0-56 18-96 73-97 30 0 46 14 59 34l2-30h47zm-90-29c32 0 41-27 41-63 0-35-9-62-40-62-32 0-39 29-40 63 0 36 9 62 39 62" id="z"/><path d="M110-194c64 0 96 36 96 99 0 64-35 99-97 99-61 0-95-36-95-99 0-62 34-99 96-99zm-1 164c35 0 45-28 45-65 0-40-10-65-43-65-34 0-45 26-45 65 0 36 10 65 43 65" id="A"/><path d="M115-3C79 11 28 4 28-45v-112H4v-33h27l15-45h31v45h36v33H77v99c-1 23 16 31 38 25v30" id="B"/><path d="M190-63c-7 42-38 67-86 67-59 0-84-38-90-98-12-110 154-137 174-36l-49 2c-2-19-15-32-35-32-30 0-35 28-38 64-6 74 65 87 74 30" id="C"/><path d="M114-157C55-157 80-60 75 0H25v-261h50l-1 109c12-26 28-41 61-42 86-1 58 113 63 194h-50c-7-57 23-157-34-157" id="D"/><path d="M25-224v-37h50v37H25zM25 0v-190h50V0H25" id="E"/><g id="b"><use transform="matrix(0.05555555555555555,0,0,0.05555555555555555,0,0)" xlink:href="#w"/><use transform="matrix(0.05555555555555555,0,0,0.05555555555555555,10.666666666666666,0)" xlink:href="#x"/><use transform="matrix(0.05555555555555555,0,0,0.05555555555555555,21.77777777777778,0)" xlink:href="#y"/><use transform="matrix(0.05555555555555555,0,0,0.05555555555555555,39.55555555555556,0)" xlink:href="#x"/><use transform="matrix(0.05555555555555555,0,0,0.05555555555555555,50.66666666666667,0)" xlink:href="#z"/><use transform="matrix(0.05555555555555555,0,0,0.05555555555555555,62.83333333333333,0)" xlink:href="#A"/><use transform="matrix(0.05555555555555555,0,0,0.05555555555555555,75,0)" xlink:href="#B"/><use transform="matrix(0.05555555555555555,0,0,0.05555555555555555,81.61111111111111,0)" xlink:href="#C"/><use transform="matrix(0.05555555555555555,0,0,0.05555555555555555,92.72222222222223,0)" xlink:href="#D"/><use transform="matrix(0.05555555555555555,0,0,0.05555555555555555,104.8888888888889,0)" xlink:href="#E"/></g><path d="M24 0v-261h32V0H24" id="F"/><path d="M100-194c63 0 86 42 84 106H49c0 40 14 67 53 68 26 1 43-12 49-29l28 8c-11 28-37 45-77 45C44 4 14-33 15-96c1-61 26-98 85-98zm52 81c6-60-76-77-97-28-3 7-6 17-6 28h103" id="G"/><path d="M108 0H70L1-190h34L89-25l56-165h34" id="H"/><g id="c"><use transform="matrix(0.05555555555555555,0,0,0.05555555555555555,0,0)" xlink:href="#F"/><use transform="matrix(0.05555555555555555,0,0,0.05555555555555555,4.388888888888888,0)" xlink:href="#G"/><use transform="matrix(0.05555555555555555,0,0,0.05555555555555555,15.5,0)" xlink:href="#H"/><use transform="matrix(0.05555555555555555,0,0,0.05555555555555555,25.5,0)" xlink:href="#G"/><use transform="matrix(0.05555555555555555,0,0,0.05555555555555555,36.611111111111114,0)" xlink:href="#F"/></g><path d="M141-36C126-15 110 5 73 4 37 3 15-17 15-53c-1-64 63-63 125-63 3-35-9-54-41-54-24 1-41 7-42 31l-33-3c5-37 33-52 76-52 45 0 72 20 72 64v82c-1 20 7 32 28 27v20c-31 9-61-2-59-35zM48-53c0 20 12 33 32 33 41-3 63-29 60-74-43 2-92-5-92 41" id="I"/><path d="M59-47c-2 24 18 29 38 22v24C64 9 27 4 27-40v-127H5v-23h24l9-43h21v43h35v23H59v120" id="J"/><path d="M87 75C49 33 22-17 22-94c0-76 28-126 65-167h31c-38 41-64 92-64 168S80 34 118 75H87" id="K"/><path d="M33-261c38 41 65 92 65 168S71 34 33 75H2C39 34 66-17 66-93S39-220 2-261h31" id="L"/><g id="d"><use transform="matrix(0.05555555555555555,0,0,0.05555555555555555,0,0)" xlink:href="#G"/><use transform="matrix(0.05555555555555555,0,0,0.05555555555555555,11.11111111111111,0)" xlink:href="#I"/><use transform="matrix(0.05555555555555555,0,0,0.05555555555555555,22.22222222222222,0)" xlink:href="#J"/><use transform="matrix(0.05555555555555555,0,0,0.05555555555555555,27.77777777777778,0)" xlink:href="#K"/><use transform="matrix(0.05555555555555555,0,0,0.05555555555555555,34.388888888888886,0)" xlink:href="#L"/></g><path d="M115-194c55 1 70 41 70 98S169 2 115 4C84 4 66-9 55-30l1 105H24l-1-265h31l2 30c10-21 28-34 59-34zm-8 174c40 0 45-34 45-75s-6-73-45-74c-42 0-51 32-51 76 0 43 10 73 51 73" id="M"/><path d="M179-190L93 31C79 59 56 82 12 73V49c39 6 53-20 64-50L1-190h34L92-34l54-156h33" id="N"/><g id="e"><use transform="matrix(0.05555555555555555,0,0,0.05555555555555555,0,0)" xlink:href="#M"/><use transform="matrix(0.05555555555555555,0,0,0.05555555555555555,11.11111111111111,0)" xlink:href="#F"/><use transform="matrix(0.05555555555555555,0,0,0.05555555555555555,15.5,0)" xlink:href="#I"/><use transform="matrix(0.05555555555555555,0,0,0.05555555555555555,26.61111111111111,0)" xlink:href="#N"/><use transform="matrix(0.05555555555555555,0,0,0.05555555555555555,36.611111111111114,0)" xlink:href="#K"/><use transform="matrix(0.05555555555555555,0,0,0.05555555555555555,43.22222222222223,0)" xlink:href="#L"/></g><path d="M115-194c53 0 69 39 70 98 0 66-23 100-70 100C84 3 66-7 56-30L54 0H23l1-261h32v101c10-23 28-34 59-34zm-8 174c40 0 45-34 45-75 0-40-5-75-45-74-42 0-51 32-51 76 0 43 10 73 51 73" id="O"/><path d="M197 0v-115H63V0H30v-248h33v105h134v-105h34V0h-34" id="P"/><g id="f"><use transform="matrix(0.05555555555555555,0,0,0.05555555555555555,0,0)" xlink:href="#O"/><use transform="matrix(0.05555555555555555,0,0,0.05555555555555555,11.11111111111111,0)" xlink:href="#G"/><use transform="matrix(0.05555555555555555,0,0,0.05555555555555555,22.22222222222222,0)" xlink:href="#P"/><use transform="matrix(0.05555555555555555,0,0,0.05555555555555555,36.61111111111111,0)" xlink:href="#I"/><use transform="matrix(0.05555555555555555,0,0,0.05555555555555555,47.722222222222214,0)" xlink:href="#M"/><use transform="matrix(0.05555555555555555,0,0,0.05555555555555555,58.83333333333333,0)" xlink:href="#M"/><use transform="matrix(0.05555555555555555,0,0,0.05555555555555555,69.94444444444444,0)" xlink:href="#N"/><use transform="matrix(0.05555555555555555,0,0,0.05555555555555555,79.94444444444444,0)" xlink:href="#K"/><use transform="matrix(0.05555555555555555,0,0,0.05555555555555555,86.55555555555556,0)" xlink:href="#L"/></g><path d="M160-131c35 5 61 23 61 61C221 17 115-2 30 0v-248c76 3 177-17 177 60 0 33-19 50-47 57zm-97-11c50-1 110 9 110-42 0-47-63-36-110-37v79zm0 115c55-2 124 14 124-45 0-56-70-42-124-44v89" id="Q"/><path d="M100-194c62-1 85 37 85 99 1 63-27 99-86 99S16-35 15-95c0-66 28-99 85-99zM99-20c44 1 53-31 53-75 0-43-8-75-51-75s-53 32-53 75 10 74 51 75" id="R"/><path d="M114-163C36-179 61-72 57 0H25l-1-190h30c1 12-1 29 2 39 6-27 23-49 58-41v29" id="S"/><path d="M85-194c31 0 48 13 60 33l-1-100h32l1 261h-30c-2-10 0-23-3-31C134-8 116 4 85 4 32 4 16-35 15-94c0-66 23-100 70-100zm9 24c-40 0-46 34-46 75 0 40 6 74 45 74 42 0 51-32 51-76 0-42-9-74-50-73" id="T"/><g id="g"><use transform="matrix(0.05555555555555555,0,0,0.05555555555555555,0,0)" xlink:href="#O"/><use transform="matrix(0.05555555555555555,0,0,0.05555555555555555,11.11111111111111,0)" xlink:href="#G"/><use transform="matrix(0.05555555555555555,0,0,0.05555555555555555,22.22222222222222,0)" xlink:href="#Q"/><use transform="matrix(0.05555555555555555,0,0,0.05555555555555555,35.55555555555556,0)" xlink:href="#R"/><use transform="matrix(0.05555555555555555,0,0,0.05555555555555555,46.66666666666667,0)" xlink:href="#S"/><use transform="matrix(0.05555555555555555,0,0,0.05555555555555555,53.277777777777786,0)" xlink:href="#G"/><use transform="matrix(0.05555555555555555,0,0,0.05555555555555555,64.3888888888889,0)" xlink:href="#T"/><use transform="matrix(0.05555555555555555,0,0,0.05555555555555555,75.50000000000001,0)" xlink:href="#K"/><use transform="matrix(0.05555555555555555,0,0,0.05555555555555555,82.11111111111113,0)" xlink:href="#L"/></g><path d="M84 4C-5 8 30-112 23-190h32v120c0 31 7 50 39 49 72-2 45-101 50-169h31l1 190h-30c-1-10 1-25-2-33-11 22-28 36-60 37" id="U"/><path d="M117-194c89-4 53 116 60 194h-32v-121c0-31-8-49-39-48C34-167 62-67 57 0H25l-1-190h30c1 10-1 24 2 32 11-22 29-35 61-36" id="V"/><path d="M177-190C167-65 218 103 67 71c-23-6-38-20-44-43l32-5c15 47 100 32 89-28v-30C133-14 115 1 83 1 29 1 15-40 15-95c0-56 16-97 71-98 29-1 48 16 59 35 1-10 0-23 2-32h30zM94-22c36 0 50-32 50-73 0-42-14-75-50-75-39 0-46 34-46 75s6 73 46 73" id="W"/><g id="h"><use transform="matrix(0.05555555555555555,0,0,0.05555555555555555,0,0)" xlink:href="#O"/><use transform="matrix(0.05555555555555555,0,0,0.05555555555555555,11.11111111111111,0)" xlink:href="#G"/><use transform="matrix(0.05555555555555555,0,0,0.05555555555555555,22.22222222222222,0)" xlink:href="#P"/><use transform="matrix(0.05555555555555555,0,0,0.05555555555555555,36.61111111111111,0)" xlink:href="#U"/><use transform="matrix(0.05555555555555555,0,0,0.05555555555555555,47.722222222222214,0)" xlink:href="#V"/><use transform="matrix(0.05555555555555555,0,0,0.05555555555555555,58.83333333333333,0)" xlink:href="#W"/><use transform="matrix(0.05555555555555555,0,0,0.05555555555555555,69.94444444444444,0)" xlink:href="#S"/><use transform="matrix(0.05555555555555555,0,0,0.05555555555555555,76.55555555555556,0)" xlink:href="#N"/><use transform="matrix(0.05555555555555555,0,0,0.05555555555555555,86.55555555555556,0)" xlink:href="#K"/><use transform="matrix(0.05555555555555555,0,0,0.05555555555555555,93.16666666666667,0)" xlink:href="#L"/></g><path d="M106-169C34-169 62-67 57 0H25v-261h32l-1 103c12-21 28-36 61-36 89 0 53 116 60 194h-32v-121c2-32-8-49-39-48" id="X"/><path d="M206 0h-36l-40-164L89 0H53L-1-190h32L70-26l43-164h34l41 164 42-164h31" id="Y"/><path d="M30 0v-248h33v221h125V0H30" id="Z"/><path d="M185-189c-5-48-123-54-124 2 14 75 158 14 163 119 3 78-121 87-175 55-17-10-28-26-33-46l33-7c5 56 141 63 141-1 0-78-155-14-162-118-5-82 145-84 179-34 5 7 8 16 11 25" id="aa"/><path d="M24-231v-30h32v30H24zM24 0v-190h32V0H24" id="ab"/><path d="M96-169c-40 0-48 33-48 73s9 75 48 75c24 0 41-14 43-38l32 2c-6 37-31 61-74 61-59 0-76-41-82-99-10-93 101-131 147-64 4 7 5 14 7 22l-32 3c-4-21-16-35-41-35" id="ac"/><g id="i"><use transform="matrix(0.05555555555555555,0,0,0.05555555555555555,0,0)" xlink:href="#X"/><use transform="matrix(0.05555555555555555,0,0,0.05555555555555555,11.11111111111111,0)" xlink:href="#R"/><use transform="matrix(0.05555555555555555,0,0,0.05555555555555555,22.22222222222222,0)" xlink:href="#Y"/><use transform="matrix(0.05555555555555555,0,0,0.05555555555555555,36.61111111111111,0)" xlink:href="#Z"/><use transform="matrix(0.05555555555555555,0,0,0.05555555555555555,47.722222222222214,0)" xlink:href="#R"/><use transform="matrix(0.05555555555555555,0,0,0.05555555555555555,58.83333333333333,0)" xlink:href="#V"/><use transform="matrix(0.05555555555555555,0,0,0.05555555555555555,69.94444444444444,0)" xlink:href="#W"/><use transform="matrix(0.05555555555555555,0,0,0.05555555555555555,81.05555555555556,0)" xlink:href="#aa"/><use transform="matrix(0.05555555555555555,0,0,0.05555555555555555,94.38888888888889,0)" xlink:href="#ab"/><use transform="matrix(0.05555555555555555,0,0,0.05555555555555555,98.77777777777777,0)" xlink:href="#V"/><use transform="matrix(0.05555555555555555,0,0,0.05555555555555555,109.88888888888889,0)" xlink:href="#ac"/><use transform="matrix(0.05555555555555555,0,0,0.05555555555555555,119.88888888888889,0)" xlink:href="#G"/><use transform="matrix(0.05555555555555555,0,0,0.05555555555555555,131,0)" xlink:href="#Q"/><use transform="matrix(0.05555555555555555,0,0,0.05555555555555555,144.33333333333334,0)" xlink:href="#R"/><use transform="matrix(0.05555555555555555,0,0,0.05555555555555555,155.44444444444446,0)" xlink:href="#S"/><use transform="matrix(0.05555555555555555,0,0,0.05555555555555555,162.05555555555557,0)" xlink:href="#G"/><use transform="matrix(0.05555555555555555,0,0,0.05555555555555555,173.16666666666669,0)" xlink:href="#T"/><use transform="matrix(0.05555555555555555,0,0,0.05555555555555555,184.2777777777778,0)" xlink:href="#K"/><use transform="matrix(0.05555555555555555,0,0,0.05555555555555555,190.8888888888889,0)" xlink:href="#L"/></g><path d="M186 0v-106H76V0H24v-248h52v99h110v-99h50V0h-50" id="ad"/><path d="M135-194c53 0 70 44 70 98 0 56-19 98-73 100-31 1-45-17-59-34 3 33 2 69 2 105H25l-1-265h48c2 10 0 23 3 31 11-24 29-35 60-35zM114-30c33 0 39-31 40-66 0-38-9-64-40-64-56 0-55 130 0 130" id="ae"/><path d="M123 10C108 53 80 86 19 72V37c35 8 53-11 59-39L3-190h52l48 148c12-52 28-100 44-148h51" id="af"/><g id="j"><use transform="matrix(0.05555555555555555,0,0,0.05555555555555555,0,0)" xlink:href="#ad"/><use transform="matrix(0.05555555555555555,0,0,0.05555555555555555,14.388888888888888,0)" xlink:href="#x"/><use transform="matrix(0.05555555555555555,0,0,0.05555555555555555,25.5,0)" xlink:href="#ae"/><use transform="matrix(0.05555555555555555,0,0,0.05555555555555555,37.666666666666664,0)" xlink:href="#ae"/><use transform="matrix(0.05555555555555555,0,0,0.05555555555555555,49.83333333333333,0)" xlink:href="#af"/></g><path d="M210-169c-67 3-38 105-44 169h-31v-121c0-29-5-50-35-48C34-165 62-65 56 0H25l-1-190h30c1 10-1 24 2 32 10-44 99-50 107 0 11-21 27-35 58-36 85-2 47 119 55 194h-31v-121c0-29-5-49-35-48" id="ag"/><path d="M30 0v-248h187v28H63v79h144v27H63v87h162V0H30" id="ah"/><g id="k"><use transform="matrix(0.05555555555555555,0,0,0.05555555555555555,0,0)" xlink:href="#J"/><use transform="matrix(0.05555555555555555,0,0,0.05555555555555555,5.555555555555555,0)" xlink:href="#ab"/><use transform="matrix(0.05555555555555555,0,0,0.05555555555555555,9.944444444444443,0)" xlink:href="#ag"/><use transform="matrix(0.05555555555555555,0,0,0.05555555555555555,26.555555555555554,0)" xlink:href="#G"/><use transform="matrix(0.05555555555555555,0,0,0.05555555555555555,37.666666666666664,0)" xlink:href="#ah"/><use transform="matrix(0.05555555555555555,0,0,0.05555555555555555,51,0)" xlink:href="#I"/><use transform="matrix(0.05555555555555555,0,0,0.05555555555555555,62.11111111111112,0)" xlink:href="#J"/><use transform="matrix(0.05555555555555555,0,0,0.05555555555555555,67.66666666666667,0)" xlink:href="#G"/><use transform="matrix(0.05555555555555555,0,0,0.05555555555555555,78.77777777777779,0)" xlink:href="#V"/></g><path d="M30-248c87 1 191-15 191 75 0 78-77 80-158 76V0H30v-248zm33 125c57 0 124 11 124-50 0-59-68-47-124-48v98" id="ai"/><g id="l"><use transform="matrix(0.05555555555555555,0,0,0.05555555555555555,0,0)" xlink:href="#J"/><use transform="matrix(0.05555555555555555,0,0,0.05555555555555555,5.555555555555555,0)" xlink:href="#ab"/><use transform="matrix(0.05555555555555555,0,0,0.05555555555555555,9.944444444444443,0)" xlink:href="#ag"/><use transform="matrix(0.05555555555555555,0,0,0.05555555555555555,26.555555555555554,0)" xlink:href="#G"/><use transform="matrix(0.05555555555555555,0,0,0.05555555555555555,37.666666666666664,0)" xlink:href="#ai"/><use transform="matrix(0.05555555555555555,0,0,0.05555555555555555,51,0)" xlink:href="#F"/><use transform="matrix(0.05555555555555555,0,0,0.05555555555555555,55.388888888888886,0)" xlink:href="#I"/><use transform="matrix(0.05555555555555555,0,0,0.05555555555555555,66.5,0)" xlink:href="#N"/><use transform="matrix(0.05555555555555555,0,0,0.05555555555555555,76.5,0)" xlink:href="#G"/><use transform="matrix(0.05555555555555555,0,0,0.05555555555555555,87.61111111111111,0)" xlink:href="#T"/></g><path d="M190 0L58-211 59 0H30v-248h39L202-35l-2-213h31V0h-41" id="aj"/><path d="M240 0l2-218c-23 76-54 145-80 218h-23L58-218 59 0H30v-248h44l77 211c21-75 51-140 76-211h43V0h-30" id="ak"/><path d="M135-143c-3-34-86-38-87 0 15 53 115 12 119 90S17 21 10-45l28-5c4 36 97 45 98 0-10-56-113-15-118-90-4-57 82-63 122-42 12 7 21 19 24 35" id="al"/><g id="m"><use transform="matrix(0.05555555555555555,0,0,0.05555555555555555,0,0)" xlink:href="#G"/><use transform="matrix(0.05555555555555555,0,0,0.05555555555555555,11.11111111111111,0)" xlink:href="#I"/><use transform="matrix(0.05555555555555555,0,0,0.05555555555555555,22.22222222222222,0)" xlink:href="#J"/><use transform="matrix(0.05555555555555555,0,0,0.05555555555555555,27.77777777777778,0)" xlink:href="#aj"/><use transform="matrix(0.05555555555555555,0,0,0.05555555555555555,42.166666666666664,0)" xlink:href="#R"/><use transform="matrix(0.05555555555555555,0,0,0.05555555555555555,53.27777777777777,0)" xlink:href="#Y"/><use transform="matrix(0.05555555555555555,0,0,0.05555555555555555,67.66666666666666,0)" xlink:href="#K"/><use transform="matrix(0.05555555555555555,0,0,0.05555555555555555,74.27777777777777,0)" xlink:href="#J"/><use transform="matrix(0.05555555555555555,0,0,0.05555555555555555,79.83333333333333,0)" xlink:href="#X"/><use transform="matrix(0.05555555555555555,0,0,0.05555555555555555,90.94444444444444,0)" xlink:href="#G"/><use transform="matrix(0.05555555555555555,0,0,0.05555555555555555,102.05555555555556,0)" xlink:href="#ak"/><use transform="matrix(0.05555555555555555,0,0,0.05555555555555555,118.66666666666666,0)" xlink:href="#I"/><use transform="matrix(0.05555555555555555,0,0,0.05555555555555555,129.77777777777777,0)" xlink:href="#al"/><use transform="matrix(0.05555555555555555,0,0,0.05555555555555555,139.77777777777777,0)" xlink:href="#ac"/><use transform="matrix(0.05555555555555555,0,0,0.05555555555555555,149.77777777777777,0)" xlink:href="#R"/><use transform="matrix(0.05555555555555555,0,0,0.05555555555555555,160.88888888888889,0)" xlink:href="#J"/><use transform="matrix(0.05555555555555555,0,0,0.05555555555555555,166.44444444444443,0)" xlink:href="#L"/></g><g id="n"><use transform="matrix(0.05555555555555555,0,0,0.05555555555555555,0,0)" xlink:href="#M"/><use transform="matrix(0.05555555555555555,0,0,0.05555555555555555,11.11111111111111,0)" xlink:href="#F"/><use transform="matrix(0.05555555555555555,0,0,0.05555555555555555,15.5,0)" xlink:href="#I"/><use transform="matrix(0.05555555555555555,0,0,0.05555555555555555,26.61111111111111,0)" xlink:href="#N"/><use transform="matrix(0.05555555555555555,0,0,0.05555555555555555,36.611111111111114,0)" xlink:href="#aj"/><use transform="matrix(0.05555555555555555,0,0,0.05555555555555555,51,0)" xlink:href="#R"/><use transform="matrix(0.05555555555555555,0,0,0.05555555555555555,62.11111111111112,0)" xlink:href="#Y"/><use transform="matrix(0.05555555555555555,0,0,0.05555555555555555,76.5,0)" xlink:href="#K"/><use transform="matrix(0.05555555555555555,0,0,0.05555555555555555,83.11111111111111,0)" xlink:href="#J"/><use transform="matrix(0.05555555555555555,0,0,0.05555555555555555,88.66666666666667,0)" xlink:href="#X"/><use transform="matrix(0.05555555555555555,0,0,0.05555555555555555,99.77777777777779,0)" xlink:href="#G"/><use transform="matrix(0.05555555555555555,0,0,0.05555555555555555,110.8888888888889,0)" xlink:href="#ak"/><use transform="matrix(0.05555555555555555,0,0,0.05555555555555555,127.50000000000001,0)" xlink:href="#I"/><use transform="matrix(0.05555555555555555,0,0,0.05555555555555555,138.61111111111111,0)" xlink:href="#al"/><use transform="matrix(0.05555555555555555,0,0,0.05555555555555555,148.61111111111111,0)" xlink:href="#ac"/><use transform="matrix(0.05555555555555555,0,0,0.05555555555555555,158.61111111111111,0)" xlink:href="#R"/><use transform="matrix(0.05555555555555555,0,0,0.05555555555555555,169.72222222222223,0)" xlink:href="#J"/><use transform="matrix(0.05555555555555555,0,0,0.05555555555555555,175.27777777777777,0)" xlink:href="#L"/></g><path d="M15-91v-56l181-69v40L49-119l147 57v40" id="am"/><path d="M135-194c87-1 58 113 63 194h-50c-7-57 23-157-34-157-59 0-34 97-39 157H25l-1-190h47c2 12-1 28 3 38 12-26 28-41 61-42" id="an"/><path d="M185-48c-13 30-37 53-82 52C43 2 14-33 14-96s30-98 90-98c62 0 83 45 84 108H66c0 31 8 55 39 56 18 0 30-7 34-22zm-45-69c5-46-57-63-70-21-2 6-4 13-4 21h74" id="ao"/><path d="M135-150c-39-12-60 13-60 57V0H25l-1-190h47c2 13-1 29 3 40 6-28 27-53 61-41v41" id="ap"/><path d="M121-226c-27-7-43 5-38 36h38v33H83V0H34v-157H6v-33h28c-9-59 32-81 87-68v32" id="aq"/><path d="M15-22v-40l146-57-146-57v-40l181 69v56" id="ar"/><g id="o"><use transform="matrix(0.05555555555555555,0,0,0.05555555555555555,0,0)" xlink:href="#am"/><use transform="matrix(0.05555555555555555,0,0,0.05555555555555555,11.666666666666666,0)" xlink:href="#am"/><use transform="matrix(0.05555555555555555,0,0,0.05555555555555555,23.333333333333332,0)" xlink:href="#E"/><use transform="matrix(0.05555555555555555,0,0,0.05555555555555555,28.888888888888886,0)" xlink:href="#an"/><use transform="matrix(0.05555555555555555,0,0,0.05555555555555555,41.05555555555555,0)" xlink:href="#B"/><use transform="matrix(0.05555555555555555,0,0,0.05555555555555555,47.66666666666666,0)" xlink:href="#ao"/><use transform="matrix(0.05555555555555555,0,0,0.05555555555555555,58.77777777777777,0)" xlink:href="#ap"/><use transform="matrix(0.05555555555555555,0,0,0.05555555555555555,66.55555555555554,0)" xlink:href="#aq"/><use transform="matrix(0.05555555555555555,0,0,0.05555555555555555,73.16666666666666,0)" xlink:href="#x"/><use transform="matrix(0.05555555555555555,0,0,0.05555555555555555,84.27777777777777,0)" xlink:href="#C"/><use transform="matrix(0.05555555555555555,0,0,0.05555555555555555,95.38888888888889,0)" xlink:href="#ao"/><use transform="matrix(0.05555555555555555,0,0,0.05555555555555555,106.5,0)" xlink:href="#ar"/><use transform="matrix(0.05555555555555555,0,0,0.05555555555555555,118.16666666666666,0)" xlink:href="#ar"/></g><path d="M230 0l2-204L168 0h-37L68-204 70 0H24v-248h70l56 185 57-185h69V0h-46" id="as"/><path d="M88-194c31-1 46 15 58 34l-1-101h50l1 261h-48c-2-10 0-23-3-31C134-8 116 4 84 4 32 4 16-41 15-95c0-56 19-97 73-99zm17 164c33 0 40-30 41-66 1-37-9-64-41-64s-38 30-39 65c0 43 13 65 39 65" id="at"/><g id="p"><use transform="matrix(0.05555555555555555,0,0,0.05555555555555555,0,0)" xlink:href="#as"/><use transform="matrix(0.05555555555555555,0,0,0.05555555555555555,16.61111111111111,0)" xlink:href="#A"/><use transform="matrix(0.05555555555555555,0,0,0.05555555555555555,28.777777777777775,0)" xlink:href="#A"/><use transform="matrix(0.05555555555555555,0,0,0.05555555555555555,40.94444444444444,0)" xlink:href="#at"/></g><path d="M27 0v-27h64v-190l-56 39v-29l58-41h29v221h61V0H27" id="au"/><use transform="matrix(0.031481481481481485,0,0,0.031481481481481485,0,0)" xlink:href="#au" id="q"/><path d="M182-130c37 4 62 22 62 59C244 23 116-4 24 0v-248c84 5 203-23 205 63 0 31-19 50-47 55zM76-148c40-3 101 13 101-30 0-44-60-28-101-31v61zm0 110c48-3 116 14 116-37 0-48-69-32-116-35v72" id="av"/><g id="r"><use transform="matrix(0.05555555555555555,0,0,0.05555555555555555,0,0)" xlink:href="#av"/><use transform="matrix(0.05555555555555555,0,0,0.05555555555555555,14.388888888888888,0)" xlink:href="#A"/><use transform="matrix(0.05555555555555555,0,0,0.05555555555555555,26.555555555555554,0)" xlink:href="#ap"/><use transform="matrix(0.05555555555555555,0,0,0.05555555555555555,34.33333333333333,0)" xlink:href="#ao"/><use transform="matrix(0.05555555555555555,0,0,0.05555555555555555,45.44444444444444,0)" xlink:href="#at"/></g><path d="M85 4C-2 5 27-109 22-190h50c7 57-23 150 33 157 60-5 35-97 40-157h50l1 190h-47c-2-12 1-28-3-38-12 25-28 42-61 42" id="aw"/><g id="s"><use transform="matrix(0.05555555555555555,0,0,0.05555555555555555,0,0)" xlink:href="#ad"/><use transform="matrix(0.05555555555555555,0,0,0.05555555555555555,14.388888888888888,0)" xlink:href="#aw"/><use transform="matrix(0.05555555555555555,0,0,0.05555555555555555,26.555555555555554,0)" xlink:href="#an"/><use transform="matrix(0.05555555555555555,0,0,0.05555555555555555,38.72222222222222,0)" xlink:href="#z"/><use transform="matrix(0.05555555555555555,0,0,0.05555555555555555,50.888888888888886,0)" xlink:href="#ap"/><use transform="matrix(0.05555555555555555,0,0,0.05555555555555555,58.666666666666664,0)" xlink:href="#af"/></g></defs></g></svg>